<svg width="153" height="24" viewBox="0 0 153 24" fill="none" xmlns="http://www.w3.org/2000/svg">
<g id="logo" clip-path="url(#clip0_106_364)">
<path id="Vector" d="M36.4437 0.461915L32.0187 17.8914H26.0344L30.4593 0.461915H8.76006L10.4075 6.57054H13.8253L10.9138 18.0362H2.89311L0 24H13.152L16.612 22.0975L21.9671 1.00799L23.2275 2.44854L18.6337 20.5415L21.6442 23.998H37.194L43.0096 1.09411L44.1966 2.5053L38.7406 23.998H45.4955L48.4289 12.4463L51.2799 23.0488L56.0919 16.9127L51.8559 0.461915H36.4437Z" fill="white"/>
<path id="Vector_2" d="M55.4867 8.31838L57.3066 15.2686L59.7594 12.229L56.7709 23.998H63.5258L69.5028 0.461915H61.616L55.4849 8.32034L55.4867 8.31838Z" fill="white"/>
<path id="Vector_3" d="M91.8624 0L89.9673 7.4611L92.9081 6.19279H102.806L102.162 8.72745H89.6426L85.7661 23.9961H92.3008L94.5757 15.0357H100.558L98.2834 23.9961H104.983L110.236 3.30974L107.221 0H91.8642H91.8624Z" fill="white"/>
<path id="Vector_4" d="M125.919 15.5289L128.609 13.0804L131.074 3.37237L128.291 0.00195694H111.472L114.295 3.43109H111.705L106.482 24.002H112.962L115.126 15.4741H116.146L119.744 24.002H126.776L122.997 15.5329H125.921L125.919 15.5289ZM122.822 9.34007H116.689L117.548 5.95792H123.681L122.822 9.34007Z" fill="white"/>
<path id="Vector_5" d="M152.308 0H143.59L138.743 4.75811L139.95 0H131.898L133.571 1.99641L127.985 24L152.308 0Z" fill="white"/>
<path id="Vector_6" d="M136.736 17.4999L138.633 23.998H145.217L141.717 12.5813L136.734 17.4999H136.736Z" fill="white"/>
<path id="Vector_7" d="M86.779 0H69.9596L72.783 3.42913H70.1908L64.9678 24H71.4475L73.5976 15.529H84.4069L87.0963 13.0804L89.562 3.37237L86.779 0ZM81.3101 9.34008H75.1771L76.0357 5.95792H82.1687L81.3101 9.34008Z" fill="white"/>
</g>
<defs>
<clipPath id="clip0_106_364">
<rect width="152.308" height="24" fill="white"/>
</clipPath>
</defs>
</svg>
